# xmcd CD database file
#
# Track frame offsets:
#	150
#	10462
#	25539
#	40694
#	61328
#	76368
#	94787
#	108585
#	125960
#	138382
#	153797
#	169983
#	178498
#
# Disc length: 2555 seconds
#
# Revision: 0
# Processed by: cddbd v1.5.2PL0 Copyright (c) Steve Scherf et al.
# Submitted via: CDex 1.51
#
DISCID=ac09f90d
DTITLE=Mikey Manville - Broken Arms
DYEAR=2007
DGENRE=Country
TTITLE0=My Old Days
TTITLE1=Me My Love
TTITLE2=Parliament
TTITLE3=Carolina/Orange
TTITLE4=Happiness
TTITLE5=Falls Apart
TTITLE6=Broken Arms
TTITLE7=Holding On
TTITLE8=Fall Back
TTITLE9=Mountain
TTITLE10=Firewood
TTITLE11=Glass Heart
TTITLE12=She Calls Me In
EXTD=YEAR: 2007
EXTT0=
EXTT1=
EXTT2=
EXTT3=
EXTT4=
EXTT5=
EXTT6=
EXTT7=
EXTT8=
EXTT9=
EXTT10=
EXTT11=
EXTT12=
PLAYORDER=
